<mxfile host="app.diagrams.net" modified="2022-02-16T06:52:53.398Z" agent="5.0 (Windows NT 10.0; Win64; x64) AppleWebKit/537.36 (KHTML, like Gecko) Chrome/97.0.4692.99 Safari/537.36 OPR/83.0.4254.46" etag="uyiOc9Kp_rddxPBXjraR" version="16.5.6" type="github">
  <diagram id="R2lEEEUBdFMjLlhIrx00" name="Page-1">
    <mxGraphModel dx="1397" dy="548" grid="1" gridSize="10" guides="1" tooltips="1" connect="1" arrows="1" fold="1" page="0" pageScale="1" pageWidth="850" pageHeight="1100" math="0" shadow="0" extFonts="Permanent Marker^https://fonts.googleapis.com/css?family=Permanent+Marker">
      <root>
        <mxCell id="0" />
        <mxCell id="1" parent="0" />
        <mxCell id="TnojkeBpL5wHd2gJYAmt-1" value="Reports" style="shape=table;startSize=30;container=1;collapsible=1;childLayout=tableLayout;fixedRows=1;rowLines=0;fontStyle=1;align=center;resizeLast=1;" vertex="1" parent="1">
          <mxGeometry x="120" y="80" width="180" height="160" as="geometry" />
        </mxCell>
        <mxCell id="TnojkeBpL5wHd2gJYAmt-2" value="" style="shape=tableRow;horizontal=0;startSize=0;swimlaneHead=0;swimlaneBody=0;fillColor=none;collapsible=0;dropTarget=0;points=[[0,0.5],[1,0.5]];portConstraint=eastwest;top=0;left=0;right=0;bottom=1;" vertex="1" parent="TnojkeBpL5wHd2gJYAmt-1">
          <mxGeometry y="30" width="180" height="30" as="geometry" />
        </mxCell>
        <mxCell id="TnojkeBpL5wHd2gJYAmt-3" value="PK" style="shape=partialRectangle;connectable=0;fillColor=none;top=0;left=0;bottom=0;right=0;fontStyle=1;overflow=hidden;" vertex="1" parent="TnojkeBpL5wHd2gJYAmt-2">
          <mxGeometry width="30" height="30" as="geometry">
            <mxRectangle width="30" height="30" as="alternateBounds" />
          </mxGeometry>
        </mxCell>
        <mxCell id="TnojkeBpL5wHd2gJYAmt-4" value="Reg no." style="shape=partialRectangle;connectable=0;fillColor=none;top=0;left=0;bottom=0;right=0;align=left;spacingLeft=6;fontStyle=5;overflow=hidden;" vertex="1" parent="TnojkeBpL5wHd2gJYAmt-2">
          <mxGeometry x="30" width="150" height="30" as="geometry">
            <mxRectangle width="150" height="30" as="alternateBounds" />
          </mxGeometry>
        </mxCell>
        <mxCell id="TnojkeBpL5wHd2gJYAmt-5" value="" style="shape=tableRow;horizontal=0;startSize=0;swimlaneHead=0;swimlaneBody=0;fillColor=none;collapsible=0;dropTarget=0;points=[[0,0.5],[1,0.5]];portConstraint=eastwest;top=0;left=0;right=0;bottom=0;" vertex="1" parent="TnojkeBpL5wHd2gJYAmt-1">
          <mxGeometry y="60" width="180" height="30" as="geometry" />
        </mxCell>
        <mxCell id="TnojkeBpL5wHd2gJYAmt-6" value="" style="shape=partialRectangle;connectable=0;fillColor=none;top=0;left=0;bottom=0;right=0;editable=1;overflow=hidden;" vertex="1" parent="TnojkeBpL5wHd2gJYAmt-5">
          <mxGeometry width="30" height="30" as="geometry">
            <mxRectangle width="30" height="30" as="alternateBounds" />
          </mxGeometry>
        </mxCell>
        <mxCell id="TnojkeBpL5wHd2gJYAmt-7" value="UserID" style="shape=partialRectangle;connectable=0;fillColor=none;top=0;left=0;bottom=0;right=0;align=left;spacingLeft=6;overflow=hidden;" vertex="1" parent="TnojkeBpL5wHd2gJYAmt-5">
          <mxGeometry x="30" width="150" height="30" as="geometry">
            <mxRectangle width="150" height="30" as="alternateBounds" />
          </mxGeometry>
        </mxCell>
        <mxCell id="TnojkeBpL5wHd2gJYAmt-8" value="" style="shape=tableRow;horizontal=0;startSize=0;swimlaneHead=0;swimlaneBody=0;fillColor=none;collapsible=0;dropTarget=0;points=[[0,0.5],[1,0.5]];portConstraint=eastwest;top=0;left=0;right=0;bottom=0;" vertex="1" parent="TnojkeBpL5wHd2gJYAmt-1">
          <mxGeometry y="90" width="180" height="30" as="geometry" />
        </mxCell>
        <mxCell id="TnojkeBpL5wHd2gJYAmt-9" value="" style="shape=partialRectangle;connectable=0;fillColor=none;top=0;left=0;bottom=0;right=0;editable=1;overflow=hidden;" vertex="1" parent="TnojkeBpL5wHd2gJYAmt-8">
          <mxGeometry width="30" height="30" as="geometry">
            <mxRectangle width="30" height="30" as="alternateBounds" />
          </mxGeometry>
        </mxCell>
        <mxCell id="TnojkeBpL5wHd2gJYAmt-10" value="Book no." style="shape=partialRectangle;connectable=0;fillColor=none;top=0;left=0;bottom=0;right=0;align=left;spacingLeft=6;overflow=hidden;" vertex="1" parent="TnojkeBpL5wHd2gJYAmt-8">
          <mxGeometry x="30" width="150" height="30" as="geometry">
            <mxRectangle width="150" height="30" as="alternateBounds" />
          </mxGeometry>
        </mxCell>
        <mxCell id="TnojkeBpL5wHd2gJYAmt-11" value="" style="shape=tableRow;horizontal=0;startSize=0;swimlaneHead=0;swimlaneBody=0;fillColor=none;collapsible=0;dropTarget=0;points=[[0,0.5],[1,0.5]];portConstraint=eastwest;top=0;left=0;right=0;bottom=0;" vertex="1" parent="TnojkeBpL5wHd2gJYAmt-1">
          <mxGeometry y="120" width="180" height="30" as="geometry" />
        </mxCell>
        <mxCell id="TnojkeBpL5wHd2gJYAmt-12" value="" style="shape=partialRectangle;connectable=0;fillColor=none;top=0;left=0;bottom=0;right=0;editable=1;overflow=hidden;" vertex="1" parent="TnojkeBpL5wHd2gJYAmt-11">
          <mxGeometry width="30" height="30" as="geometry">
            <mxRectangle width="30" height="30" as="alternateBounds" />
          </mxGeometry>
        </mxCell>
        <mxCell id="TnojkeBpL5wHd2gJYAmt-13" value="Issue/return" style="shape=partialRectangle;connectable=0;fillColor=none;top=0;left=0;bottom=0;right=0;align=left;spacingLeft=6;overflow=hidden;" vertex="1" parent="TnojkeBpL5wHd2gJYAmt-11">
          <mxGeometry x="30" width="150" height="30" as="geometry">
            <mxRectangle width="150" height="30" as="alternateBounds" />
          </mxGeometry>
        </mxCell>
        <mxCell id="TnojkeBpL5wHd2gJYAmt-14" value="Staff" style="shape=table;startSize=30;container=1;collapsible=1;childLayout=tableLayout;fixedRows=1;rowLines=0;fontStyle=1;align=center;resizeLast=1;" vertex="1" parent="1">
          <mxGeometry x="320" y="80" width="180" height="120" as="geometry" />
        </mxCell>
        <mxCell id="TnojkeBpL5wHd2gJYAmt-15" value="" style="shape=tableRow;horizontal=0;startSize=0;swimlaneHead=0;swimlaneBody=0;fillColor=none;collapsible=0;dropTarget=0;points=[[0,0.5],[1,0.5]];portConstraint=eastwest;top=0;left=0;right=0;bottom=0;" vertex="1" parent="TnojkeBpL5wHd2gJYAmt-14">
          <mxGeometry y="30" width="180" height="30" as="geometry" />
        </mxCell>
        <mxCell id="TnojkeBpL5wHd2gJYAmt-16" value="PK" style="shape=partialRectangle;connectable=0;fillColor=none;top=0;left=0;bottom=0;right=0;fontStyle=1;overflow=hidden;" vertex="1" parent="TnojkeBpL5wHd2gJYAmt-15">
          <mxGeometry width="60" height="30" as="geometry">
            <mxRectangle width="60" height="30" as="alternateBounds" />
          </mxGeometry>
        </mxCell>
        <mxCell id="TnojkeBpL5wHd2gJYAmt-17" value="StaffID" style="shape=partialRectangle;connectable=0;fillColor=none;top=0;left=0;bottom=0;right=0;align=left;spacingLeft=6;fontStyle=5;overflow=hidden;" vertex="1" parent="TnojkeBpL5wHd2gJYAmt-15">
          <mxGeometry x="60" width="120" height="30" as="geometry">
            <mxRectangle width="120" height="30" as="alternateBounds" />
          </mxGeometry>
        </mxCell>
        <mxCell id="TnojkeBpL5wHd2gJYAmt-18" value="" style="shape=tableRow;horizontal=0;startSize=0;swimlaneHead=0;swimlaneBody=0;fillColor=none;collapsible=0;dropTarget=0;points=[[0,0.5],[1,0.5]];portConstraint=eastwest;top=0;left=0;right=0;bottom=1;" vertex="1" parent="TnojkeBpL5wHd2gJYAmt-14">
          <mxGeometry y="60" width="180" height="20" as="geometry" />
        </mxCell>
        <mxCell id="TnojkeBpL5wHd2gJYAmt-19" value="" style="shape=partialRectangle;connectable=0;fillColor=none;top=0;left=0;bottom=0;right=0;fontStyle=1;overflow=hidden;" vertex="1" parent="TnojkeBpL5wHd2gJYAmt-18">
          <mxGeometry width="60" height="20" as="geometry">
            <mxRectangle width="60" height="20" as="alternateBounds" />
          </mxGeometry>
        </mxCell>
        <mxCell id="TnojkeBpL5wHd2gJYAmt-20" value="" style="shape=partialRectangle;connectable=0;fillColor=none;top=0;left=0;bottom=0;right=0;align=left;spacingLeft=6;fontStyle=5;overflow=hidden;" vertex="1" parent="TnojkeBpL5wHd2gJYAmt-18">
          <mxGeometry x="60" width="120" height="20" as="geometry">
            <mxRectangle width="120" height="20" as="alternateBounds" />
          </mxGeometry>
        </mxCell>
        <mxCell id="TnojkeBpL5wHd2gJYAmt-21" value="" style="shape=tableRow;horizontal=0;startSize=0;swimlaneHead=0;swimlaneBody=0;fillColor=none;collapsible=0;dropTarget=0;points=[[0,0.5],[1,0.5]];portConstraint=eastwest;top=0;left=0;right=0;bottom=0;" vertex="1" parent="TnojkeBpL5wHd2gJYAmt-14">
          <mxGeometry y="80" width="180" height="30" as="geometry" />
        </mxCell>
        <mxCell id="TnojkeBpL5wHd2gJYAmt-22" value="" style="shape=partialRectangle;connectable=0;fillColor=none;top=0;left=0;bottom=0;right=0;editable=1;overflow=hidden;" vertex="1" parent="TnojkeBpL5wHd2gJYAmt-21">
          <mxGeometry width="60" height="30" as="geometry">
            <mxRectangle width="60" height="30" as="alternateBounds" />
          </mxGeometry>
        </mxCell>
        <mxCell id="TnojkeBpL5wHd2gJYAmt-23" value="Name" style="shape=partialRectangle;connectable=0;fillColor=none;top=0;left=0;bottom=0;right=0;align=left;spacingLeft=6;overflow=hidden;" vertex="1" parent="TnojkeBpL5wHd2gJYAmt-21">
          <mxGeometry x="60" width="120" height="30" as="geometry">
            <mxRectangle width="120" height="30" as="alternateBounds" />
          </mxGeometry>
        </mxCell>
        <mxCell id="TnojkeBpL5wHd2gJYAmt-28" value="Readers" style="shape=table;startSize=30;container=1;collapsible=1;childLayout=tableLayout;fixedRows=1;rowLines=0;fontStyle=1;align=center;resizeLast=1;" vertex="1" parent="1">
          <mxGeometry x="530" y="80" width="180" height="190" as="geometry">
            <mxRectangle x="530" y="80" width="80" height="30" as="alternateBounds" />
          </mxGeometry>
        </mxCell>
        <mxCell id="TnojkeBpL5wHd2gJYAmt-32" value="" style="shape=tableRow;horizontal=0;startSize=0;swimlaneHead=0;swimlaneBody=0;fillColor=none;collapsible=0;dropTarget=0;points=[[0,0.5],[1,0.5]];portConstraint=eastwest;top=0;left=0;right=0;bottom=1;" vertex="1" parent="TnojkeBpL5wHd2gJYAmt-28">
          <mxGeometry y="30" width="180" height="30" as="geometry" />
        </mxCell>
        <mxCell id="TnojkeBpL5wHd2gJYAmt-33" value="PK,FK1" style="shape=partialRectangle;connectable=0;fillColor=none;top=0;left=0;bottom=0;right=0;fontStyle=1;overflow=hidden;" vertex="1" parent="TnojkeBpL5wHd2gJYAmt-32">
          <mxGeometry width="60" height="30" as="geometry">
            <mxRectangle width="60" height="30" as="alternateBounds" />
          </mxGeometry>
        </mxCell>
        <mxCell id="TnojkeBpL5wHd2gJYAmt-34" value="Phone no." style="shape=partialRectangle;connectable=0;fillColor=none;top=0;left=0;bottom=0;right=0;align=left;spacingLeft=6;fontStyle=5;overflow=hidden;" vertex="1" parent="TnojkeBpL5wHd2gJYAmt-32">
          <mxGeometry x="60" width="120" height="30" as="geometry">
            <mxRectangle width="120" height="30" as="alternateBounds" />
          </mxGeometry>
        </mxCell>
        <mxCell id="TnojkeBpL5wHd2gJYAmt-35" value="" style="shape=tableRow;horizontal=0;startSize=0;swimlaneHead=0;swimlaneBody=0;fillColor=none;collapsible=0;dropTarget=0;points=[[0,0.5],[1,0.5]];portConstraint=eastwest;top=0;left=0;right=0;bottom=0;" vertex="1" parent="TnojkeBpL5wHd2gJYAmt-28">
          <mxGeometry y="60" width="180" height="30" as="geometry" />
        </mxCell>
        <mxCell id="TnojkeBpL5wHd2gJYAmt-36" value="" style="shape=partialRectangle;connectable=0;fillColor=none;top=0;left=0;bottom=0;right=0;editable=1;overflow=hidden;" vertex="1" parent="TnojkeBpL5wHd2gJYAmt-35">
          <mxGeometry width="60" height="30" as="geometry">
            <mxRectangle width="60" height="30" as="alternateBounds" />
          </mxGeometry>
        </mxCell>
        <mxCell id="TnojkeBpL5wHd2gJYAmt-37" value="Email" style="shape=partialRectangle;connectable=0;fillColor=none;top=0;left=0;bottom=0;right=0;align=left;spacingLeft=6;overflow=hidden;" vertex="1" parent="TnojkeBpL5wHd2gJYAmt-35">
          <mxGeometry x="60" width="120" height="30" as="geometry">
            <mxRectangle width="120" height="30" as="alternateBounds" />
          </mxGeometry>
        </mxCell>
        <mxCell id="TnojkeBpL5wHd2gJYAmt-38" value="" style="shape=tableRow;horizontal=0;startSize=0;swimlaneHead=0;swimlaneBody=0;fillColor=none;collapsible=0;dropTarget=0;points=[[0,0.5],[1,0.5]];portConstraint=eastwest;top=0;left=0;right=0;bottom=0;" vertex="1" parent="TnojkeBpL5wHd2gJYAmt-28">
          <mxGeometry y="90" width="180" height="30" as="geometry" />
        </mxCell>
        <mxCell id="TnojkeBpL5wHd2gJYAmt-39" value="" style="shape=partialRectangle;connectable=0;fillColor=none;top=0;left=0;bottom=0;right=0;editable=1;overflow=hidden;" vertex="1" parent="TnojkeBpL5wHd2gJYAmt-38">
          <mxGeometry width="60" height="30" as="geometry">
            <mxRectangle width="60" height="30" as="alternateBounds" />
          </mxGeometry>
        </mxCell>
        <mxCell id="TnojkeBpL5wHd2gJYAmt-40" value="Name" style="shape=partialRectangle;connectable=0;fillColor=none;top=0;left=0;bottom=0;right=0;align=left;spacingLeft=6;overflow=hidden;" vertex="1" parent="TnojkeBpL5wHd2gJYAmt-38">
          <mxGeometry x="60" width="120" height="30" as="geometry">
            <mxRectangle width="120" height="30" as="alternateBounds" />
          </mxGeometry>
        </mxCell>
        <mxCell id="TnojkeBpL5wHd2gJYAmt-81" style="shape=tableRow;horizontal=0;startSize=0;swimlaneHead=0;swimlaneBody=0;fillColor=none;collapsible=0;dropTarget=0;points=[[0,0.5],[1,0.5]];portConstraint=eastwest;top=0;left=0;right=0;bottom=0;" vertex="1" parent="TnojkeBpL5wHd2gJYAmt-28">
          <mxGeometry y="120" width="180" height="30" as="geometry" />
        </mxCell>
        <mxCell id="TnojkeBpL5wHd2gJYAmt-82" style="shape=partialRectangle;connectable=0;fillColor=none;top=0;left=0;bottom=0;right=0;editable=1;overflow=hidden;" vertex="1" parent="TnojkeBpL5wHd2gJYAmt-81">
          <mxGeometry width="60" height="30" as="geometry">
            <mxRectangle width="60" height="30" as="alternateBounds" />
          </mxGeometry>
        </mxCell>
        <mxCell id="TnojkeBpL5wHd2gJYAmt-83" value="Address" style="shape=partialRectangle;connectable=0;fillColor=none;top=0;left=0;bottom=0;right=0;align=left;spacingLeft=6;overflow=hidden;" vertex="1" parent="TnojkeBpL5wHd2gJYAmt-81">
          <mxGeometry x="60" width="120" height="30" as="geometry">
            <mxRectangle width="120" height="30" as="alternateBounds" />
          </mxGeometry>
        </mxCell>
        <mxCell id="TnojkeBpL5wHd2gJYAmt-215" style="shape=tableRow;horizontal=0;startSize=0;swimlaneHead=0;swimlaneBody=0;fillColor=none;collapsible=0;dropTarget=0;points=[[0,0.5],[1,0.5]];portConstraint=eastwest;top=0;left=0;right=0;bottom=0;" vertex="1" parent="TnojkeBpL5wHd2gJYAmt-28">
          <mxGeometry y="150" width="180" height="30" as="geometry" />
        </mxCell>
        <mxCell id="TnojkeBpL5wHd2gJYAmt-216" style="shape=partialRectangle;connectable=0;fillColor=none;top=0;left=0;bottom=0;right=0;editable=1;overflow=hidden;" vertex="1" parent="TnojkeBpL5wHd2gJYAmt-215">
          <mxGeometry width="60" height="30" as="geometry">
            <mxRectangle width="60" height="30" as="alternateBounds" />
          </mxGeometry>
        </mxCell>
        <mxCell id="TnojkeBpL5wHd2gJYAmt-217" value="UserID" style="shape=partialRectangle;connectable=0;fillColor=none;top=0;left=0;bottom=0;right=0;align=left;spacingLeft=6;overflow=hidden;" vertex="1" parent="TnojkeBpL5wHd2gJYAmt-215">
          <mxGeometry x="60" width="120" height="30" as="geometry">
            <mxRectangle width="120" height="30" as="alternateBounds" />
          </mxGeometry>
        </mxCell>
        <mxCell id="TnojkeBpL5wHd2gJYAmt-41" value="Books" style="shape=table;startSize=30;container=1;collapsible=1;childLayout=tableLayout;fixedRows=1;rowLines=0;fontStyle=1;align=center;resizeLast=1;" vertex="1" parent="1">
          <mxGeometry x="120" y="330" width="180" height="250" as="geometry" />
        </mxCell>
        <mxCell id="TnojkeBpL5wHd2gJYAmt-42" value="" style="shape=tableRow;horizontal=0;startSize=0;swimlaneHead=0;swimlaneBody=0;fillColor=none;collapsible=0;dropTarget=0;points=[[0,0.5],[1,0.5]];portConstraint=eastwest;top=0;left=0;right=0;bottom=0;" vertex="1" parent="TnojkeBpL5wHd2gJYAmt-41">
          <mxGeometry y="30" width="180" height="30" as="geometry" />
        </mxCell>
        <mxCell id="TnojkeBpL5wHd2gJYAmt-43" value="PK" style="shape=partialRectangle;connectable=0;fillColor=none;top=0;left=0;bottom=0;right=0;fontStyle=1;overflow=hidden;" vertex="1" parent="TnojkeBpL5wHd2gJYAmt-42">
          <mxGeometry width="60" height="30" as="geometry">
            <mxRectangle width="60" height="30" as="alternateBounds" />
          </mxGeometry>
        </mxCell>
        <mxCell id="TnojkeBpL5wHd2gJYAmt-44" value="ISBN" style="shape=partialRectangle;connectable=0;fillColor=none;top=0;left=0;bottom=0;right=0;align=left;spacingLeft=6;fontStyle=5;overflow=hidden;" vertex="1" parent="TnojkeBpL5wHd2gJYAmt-42">
          <mxGeometry x="60" width="120" height="30" as="geometry">
            <mxRectangle width="120" height="30" as="alternateBounds" />
          </mxGeometry>
        </mxCell>
        <mxCell id="TnojkeBpL5wHd2gJYAmt-45" value="" style="shape=tableRow;horizontal=0;startSize=0;swimlaneHead=0;swimlaneBody=0;fillColor=none;collapsible=0;dropTarget=0;points=[[0,0.5],[1,0.5]];portConstraint=eastwest;top=0;left=0;right=0;bottom=1;" vertex="1" parent="TnojkeBpL5wHd2gJYAmt-41">
          <mxGeometry y="60" width="180" height="30" as="geometry" />
        </mxCell>
        <mxCell id="TnojkeBpL5wHd2gJYAmt-46" value="" style="shape=partialRectangle;connectable=0;fillColor=none;top=0;left=0;bottom=0;right=0;fontStyle=1;overflow=hidden;" vertex="1" parent="TnojkeBpL5wHd2gJYAmt-45">
          <mxGeometry width="60" height="30" as="geometry">
            <mxRectangle width="60" height="30" as="alternateBounds" />
          </mxGeometry>
        </mxCell>
        <mxCell id="TnojkeBpL5wHd2gJYAmt-47" value="" style="shape=partialRectangle;connectable=0;fillColor=none;top=0;left=0;bottom=0;right=0;align=left;spacingLeft=6;fontStyle=5;overflow=hidden;" vertex="1" parent="TnojkeBpL5wHd2gJYAmt-45">
          <mxGeometry x="60" width="120" height="30" as="geometry">
            <mxRectangle width="120" height="30" as="alternateBounds" />
          </mxGeometry>
        </mxCell>
        <mxCell id="TnojkeBpL5wHd2gJYAmt-48" value="" style="shape=tableRow;horizontal=0;startSize=0;swimlaneHead=0;swimlaneBody=0;fillColor=none;collapsible=0;dropTarget=0;points=[[0,0.5],[1,0.5]];portConstraint=eastwest;top=0;left=0;right=0;bottom=0;" vertex="1" parent="TnojkeBpL5wHd2gJYAmt-41">
          <mxGeometry y="90" width="180" height="30" as="geometry" />
        </mxCell>
        <mxCell id="TnojkeBpL5wHd2gJYAmt-49" value="" style="shape=partialRectangle;connectable=0;fillColor=none;top=0;left=0;bottom=0;right=0;editable=1;overflow=hidden;" vertex="1" parent="TnojkeBpL5wHd2gJYAmt-48">
          <mxGeometry width="60" height="30" as="geometry">
            <mxRectangle width="60" height="30" as="alternateBounds" />
          </mxGeometry>
        </mxCell>
        <mxCell id="TnojkeBpL5wHd2gJYAmt-50" value="Title" style="shape=partialRectangle;connectable=0;fillColor=none;top=0;left=0;bottom=0;right=0;align=left;spacingLeft=6;overflow=hidden;" vertex="1" parent="TnojkeBpL5wHd2gJYAmt-48">
          <mxGeometry x="60" width="120" height="30" as="geometry">
            <mxRectangle width="120" height="30" as="alternateBounds" />
          </mxGeometry>
        </mxCell>
        <mxCell id="TnojkeBpL5wHd2gJYAmt-51" value="" style="shape=tableRow;horizontal=0;startSize=0;swimlaneHead=0;swimlaneBody=0;fillColor=none;collapsible=0;dropTarget=0;points=[[0,0.5],[1,0.5]];portConstraint=eastwest;top=0;left=0;right=0;bottom=0;" vertex="1" parent="TnojkeBpL5wHd2gJYAmt-41">
          <mxGeometry y="120" width="180" height="30" as="geometry" />
        </mxCell>
        <mxCell id="TnojkeBpL5wHd2gJYAmt-52" value="" style="shape=partialRectangle;connectable=0;fillColor=none;top=0;left=0;bottom=0;right=0;editable=1;overflow=hidden;" vertex="1" parent="TnojkeBpL5wHd2gJYAmt-51">
          <mxGeometry width="60" height="30" as="geometry">
            <mxRectangle width="60" height="30" as="alternateBounds" />
          </mxGeometry>
        </mxCell>
        <mxCell id="TnojkeBpL5wHd2gJYAmt-53" value="Edition" style="shape=partialRectangle;connectable=0;fillColor=none;top=0;left=0;bottom=0;right=0;align=left;spacingLeft=6;overflow=hidden;" vertex="1" parent="TnojkeBpL5wHd2gJYAmt-51">
          <mxGeometry x="60" width="120" height="30" as="geometry">
            <mxRectangle width="120" height="30" as="alternateBounds" />
          </mxGeometry>
        </mxCell>
        <mxCell id="TnojkeBpL5wHd2gJYAmt-90" style="shape=tableRow;horizontal=0;startSize=0;swimlaneHead=0;swimlaneBody=0;fillColor=none;collapsible=0;dropTarget=0;points=[[0,0.5],[1,0.5]];portConstraint=eastwest;top=0;left=0;right=0;bottom=0;" vertex="1" parent="TnojkeBpL5wHd2gJYAmt-41">
          <mxGeometry y="150" width="180" height="30" as="geometry" />
        </mxCell>
        <mxCell id="TnojkeBpL5wHd2gJYAmt-91" style="shape=partialRectangle;connectable=0;fillColor=none;top=0;left=0;bottom=0;right=0;editable=1;overflow=hidden;" vertex="1" parent="TnojkeBpL5wHd2gJYAmt-90">
          <mxGeometry width="60" height="30" as="geometry">
            <mxRectangle width="60" height="30" as="alternateBounds" />
          </mxGeometry>
        </mxCell>
        <mxCell id="TnojkeBpL5wHd2gJYAmt-92" value="Auth no." style="shape=partialRectangle;connectable=0;fillColor=none;top=0;left=0;bottom=0;right=0;align=left;spacingLeft=6;overflow=hidden;" vertex="1" parent="TnojkeBpL5wHd2gJYAmt-90">
          <mxGeometry x="60" width="120" height="30" as="geometry">
            <mxRectangle width="120" height="30" as="alternateBounds" />
          </mxGeometry>
        </mxCell>
        <mxCell id="TnojkeBpL5wHd2gJYAmt-87" style="shape=tableRow;horizontal=0;startSize=0;swimlaneHead=0;swimlaneBody=0;fillColor=none;collapsible=0;dropTarget=0;points=[[0,0.5],[1,0.5]];portConstraint=eastwest;top=0;left=0;right=0;bottom=0;" vertex="1" parent="TnojkeBpL5wHd2gJYAmt-41">
          <mxGeometry y="180" width="180" height="30" as="geometry" />
        </mxCell>
        <mxCell id="TnojkeBpL5wHd2gJYAmt-88" style="shape=partialRectangle;connectable=0;fillColor=none;top=0;left=0;bottom=0;right=0;editable=1;overflow=hidden;" vertex="1" parent="TnojkeBpL5wHd2gJYAmt-87">
          <mxGeometry width="60" height="30" as="geometry">
            <mxRectangle width="60" height="30" as="alternateBounds" />
          </mxGeometry>
        </mxCell>
        <mxCell id="TnojkeBpL5wHd2gJYAmt-89" value="Category" style="shape=partialRectangle;connectable=0;fillColor=none;top=0;left=0;bottom=0;right=0;align=left;spacingLeft=6;overflow=hidden;" vertex="1" parent="TnojkeBpL5wHd2gJYAmt-87">
          <mxGeometry x="60" width="120" height="30" as="geometry">
            <mxRectangle width="120" height="30" as="alternateBounds" />
          </mxGeometry>
        </mxCell>
        <mxCell id="TnojkeBpL5wHd2gJYAmt-93" style="shape=tableRow;horizontal=0;startSize=0;swimlaneHead=0;swimlaneBody=0;fillColor=none;collapsible=0;dropTarget=0;points=[[0,0.5],[1,0.5]];portConstraint=eastwest;top=0;left=0;right=0;bottom=0;" vertex="1" parent="TnojkeBpL5wHd2gJYAmt-41">
          <mxGeometry y="210" width="180" height="30" as="geometry" />
        </mxCell>
        <mxCell id="TnojkeBpL5wHd2gJYAmt-94" style="shape=partialRectangle;connectable=0;fillColor=none;top=0;left=0;bottom=0;right=0;editable=1;overflow=hidden;" vertex="1" parent="TnojkeBpL5wHd2gJYAmt-93">
          <mxGeometry width="60" height="30" as="geometry">
            <mxRectangle width="60" height="30" as="alternateBounds" />
          </mxGeometry>
        </mxCell>
        <mxCell id="TnojkeBpL5wHd2gJYAmt-95" value="Price" style="shape=partialRectangle;connectable=0;fillColor=none;top=0;left=0;bottom=0;right=0;align=left;spacingLeft=6;overflow=hidden;" vertex="1" parent="TnojkeBpL5wHd2gJYAmt-93">
          <mxGeometry x="60" width="120" height="30" as="geometry">
            <mxRectangle width="120" height="30" as="alternateBounds" />
          </mxGeometry>
        </mxCell>
        <mxCell id="TnojkeBpL5wHd2gJYAmt-54" value="Publisher" style="shape=table;startSize=30;container=1;collapsible=1;childLayout=tableLayout;fixedRows=1;rowLines=0;fontStyle=1;align=center;resizeLast=1;" vertex="1" parent="1">
          <mxGeometry x="320" y="330" width="180" height="160" as="geometry" />
        </mxCell>
        <mxCell id="TnojkeBpL5wHd2gJYAmt-55" value="" style="shape=tableRow;horizontal=0;startSize=0;swimlaneHead=0;swimlaneBody=0;fillColor=none;collapsible=0;dropTarget=0;points=[[0,0.5],[1,0.5]];portConstraint=eastwest;top=0;left=0;right=0;bottom=0;" vertex="1" parent="TnojkeBpL5wHd2gJYAmt-54">
          <mxGeometry y="30" width="180" height="30" as="geometry" />
        </mxCell>
        <mxCell id="TnojkeBpL5wHd2gJYAmt-56" value="PK" style="shape=partialRectangle;connectable=0;fillColor=none;top=0;left=0;bottom=0;right=0;fontStyle=1;overflow=hidden;" vertex="1" parent="TnojkeBpL5wHd2gJYAmt-55">
          <mxGeometry width="60" height="30" as="geometry">
            <mxRectangle width="60" height="30" as="alternateBounds" />
          </mxGeometry>
        </mxCell>
        <mxCell id="TnojkeBpL5wHd2gJYAmt-57" value="PublisherID" style="shape=partialRectangle;connectable=0;fillColor=none;top=0;left=0;bottom=0;right=0;align=left;spacingLeft=6;fontStyle=5;overflow=hidden;" vertex="1" parent="TnojkeBpL5wHd2gJYAmt-55">
          <mxGeometry x="60" width="120" height="30" as="geometry">
            <mxRectangle width="120" height="30" as="alternateBounds" />
          </mxGeometry>
        </mxCell>
        <mxCell id="TnojkeBpL5wHd2gJYAmt-58" value="" style="shape=tableRow;horizontal=0;startSize=0;swimlaneHead=0;swimlaneBody=0;fillColor=none;collapsible=0;dropTarget=0;points=[[0,0.5],[1,0.5]];portConstraint=eastwest;top=0;left=0;right=0;bottom=1;" vertex="1" parent="TnojkeBpL5wHd2gJYAmt-54">
          <mxGeometry y="60" width="180" height="30" as="geometry" />
        </mxCell>
        <mxCell id="TnojkeBpL5wHd2gJYAmt-59" value="" style="shape=partialRectangle;connectable=0;fillColor=none;top=0;left=0;bottom=0;right=0;fontStyle=1;overflow=hidden;" vertex="1" parent="TnojkeBpL5wHd2gJYAmt-58">
          <mxGeometry width="60" height="30" as="geometry">
            <mxRectangle width="60" height="30" as="alternateBounds" />
          </mxGeometry>
        </mxCell>
        <mxCell id="TnojkeBpL5wHd2gJYAmt-60" value="" style="shape=partialRectangle;connectable=0;fillColor=none;top=0;left=0;bottom=0;right=0;align=left;spacingLeft=6;fontStyle=5;overflow=hidden;" vertex="1" parent="TnojkeBpL5wHd2gJYAmt-58">
          <mxGeometry x="60" width="120" height="30" as="geometry">
            <mxRectangle width="120" height="30" as="alternateBounds" />
          </mxGeometry>
        </mxCell>
        <mxCell id="TnojkeBpL5wHd2gJYAmt-61" value="" style="shape=tableRow;horizontal=0;startSize=0;swimlaneHead=0;swimlaneBody=0;fillColor=none;collapsible=0;dropTarget=0;points=[[0,0.5],[1,0.5]];portConstraint=eastwest;top=0;left=0;right=0;bottom=0;" vertex="1" parent="TnojkeBpL5wHd2gJYAmt-54">
          <mxGeometry y="90" width="180" height="30" as="geometry" />
        </mxCell>
        <mxCell id="TnojkeBpL5wHd2gJYAmt-62" value="" style="shape=partialRectangle;connectable=0;fillColor=none;top=0;left=0;bottom=0;right=0;editable=1;overflow=hidden;" vertex="1" parent="TnojkeBpL5wHd2gJYAmt-61">
          <mxGeometry width="60" height="30" as="geometry">
            <mxRectangle width="60" height="30" as="alternateBounds" />
          </mxGeometry>
        </mxCell>
        <mxCell id="TnojkeBpL5wHd2gJYAmt-63" value="Name" style="shape=partialRectangle;connectable=0;fillColor=none;top=0;left=0;bottom=0;right=0;align=left;spacingLeft=6;overflow=hidden;" vertex="1" parent="TnojkeBpL5wHd2gJYAmt-61">
          <mxGeometry x="60" width="120" height="30" as="geometry">
            <mxRectangle width="120" height="30" as="alternateBounds" />
          </mxGeometry>
        </mxCell>
        <mxCell id="TnojkeBpL5wHd2gJYAmt-64" value="" style="shape=tableRow;horizontal=0;startSize=0;swimlaneHead=0;swimlaneBody=0;fillColor=none;collapsible=0;dropTarget=0;points=[[0,0.5],[1,0.5]];portConstraint=eastwest;top=0;left=0;right=0;bottom=0;" vertex="1" parent="TnojkeBpL5wHd2gJYAmt-54">
          <mxGeometry y="120" width="180" height="30" as="geometry" />
        </mxCell>
        <mxCell id="TnojkeBpL5wHd2gJYAmt-65" value="" style="shape=partialRectangle;connectable=0;fillColor=none;top=0;left=0;bottom=0;right=0;editable=1;overflow=hidden;" vertex="1" parent="TnojkeBpL5wHd2gJYAmt-64">
          <mxGeometry width="60" height="30" as="geometry">
            <mxRectangle width="60" height="30" as="alternateBounds" />
          </mxGeometry>
        </mxCell>
        <mxCell id="TnojkeBpL5wHd2gJYAmt-66" value="YearOfPublication" style="shape=partialRectangle;connectable=0;fillColor=none;top=0;left=0;bottom=0;right=0;align=left;spacingLeft=6;overflow=hidden;" vertex="1" parent="TnojkeBpL5wHd2gJYAmt-64">
          <mxGeometry x="60" width="120" height="30" as="geometry">
            <mxRectangle width="120" height="30" as="alternateBounds" />
          </mxGeometry>
        </mxCell>
        <mxCell id="TnojkeBpL5wHd2gJYAmt-67" value="Authentication System" style="shape=table;startSize=30;container=1;collapsible=1;childLayout=tableLayout;fixedRows=1;rowLines=0;fontStyle=1;align=center;resizeLast=1;" vertex="1" parent="1">
          <mxGeometry x="530" y="330" width="180" height="130" as="geometry" />
        </mxCell>
        <mxCell id="TnojkeBpL5wHd2gJYAmt-68" value="" style="shape=tableRow;horizontal=0;startSize=0;swimlaneHead=0;swimlaneBody=0;fillColor=none;collapsible=0;dropTarget=0;points=[[0,0.5],[1,0.5]];portConstraint=eastwest;top=0;left=0;right=0;bottom=0;" vertex="1" parent="TnojkeBpL5wHd2gJYAmt-67">
          <mxGeometry y="30" width="180" height="30" as="geometry" />
        </mxCell>
        <mxCell id="TnojkeBpL5wHd2gJYAmt-69" value="PK" style="shape=partialRectangle;connectable=0;fillColor=none;top=0;left=0;bottom=0;right=0;fontStyle=1;overflow=hidden;" vertex="1" parent="TnojkeBpL5wHd2gJYAmt-68">
          <mxGeometry width="60" height="30" as="geometry">
            <mxRectangle width="60" height="30" as="alternateBounds" />
          </mxGeometry>
        </mxCell>
        <mxCell id="TnojkeBpL5wHd2gJYAmt-70" value="LoginID" style="shape=partialRectangle;connectable=0;fillColor=none;top=0;left=0;bottom=0;right=0;align=left;spacingLeft=6;fontStyle=5;overflow=hidden;" vertex="1" parent="TnojkeBpL5wHd2gJYAmt-68">
          <mxGeometry x="60" width="120" height="30" as="geometry">
            <mxRectangle width="120" height="30" as="alternateBounds" />
          </mxGeometry>
        </mxCell>
        <mxCell id="TnojkeBpL5wHd2gJYAmt-71" value="" style="shape=tableRow;horizontal=0;startSize=0;swimlaneHead=0;swimlaneBody=0;fillColor=none;collapsible=0;dropTarget=0;points=[[0,0.5],[1,0.5]];portConstraint=eastwest;top=0;left=0;right=0;bottom=1;" vertex="1" parent="TnojkeBpL5wHd2gJYAmt-67">
          <mxGeometry y="60" width="180" height="30" as="geometry" />
        </mxCell>
        <mxCell id="TnojkeBpL5wHd2gJYAmt-72" value="" style="shape=partialRectangle;connectable=0;fillColor=none;top=0;left=0;bottom=0;right=0;fontStyle=1;overflow=hidden;" vertex="1" parent="TnojkeBpL5wHd2gJYAmt-71">
          <mxGeometry width="60" height="30" as="geometry">
            <mxRectangle width="60" height="30" as="alternateBounds" />
          </mxGeometry>
        </mxCell>
        <mxCell id="TnojkeBpL5wHd2gJYAmt-73" value="" style="shape=partialRectangle;connectable=0;fillColor=none;top=0;left=0;bottom=0;right=0;align=left;spacingLeft=6;fontStyle=5;overflow=hidden;" vertex="1" parent="TnojkeBpL5wHd2gJYAmt-71">
          <mxGeometry x="60" width="120" height="30" as="geometry">
            <mxRectangle width="120" height="30" as="alternateBounds" />
          </mxGeometry>
        </mxCell>
        <mxCell id="TnojkeBpL5wHd2gJYAmt-74" value="" style="shape=tableRow;horizontal=0;startSize=0;swimlaneHead=0;swimlaneBody=0;fillColor=none;collapsible=0;dropTarget=0;points=[[0,0.5],[1,0.5]];portConstraint=eastwest;top=0;left=0;right=0;bottom=0;" vertex="1" parent="TnojkeBpL5wHd2gJYAmt-67">
          <mxGeometry y="90" width="180" height="30" as="geometry" />
        </mxCell>
        <mxCell id="TnojkeBpL5wHd2gJYAmt-75" value="" style="shape=partialRectangle;connectable=0;fillColor=none;top=0;left=0;bottom=0;right=0;editable=1;overflow=hidden;" vertex="1" parent="TnojkeBpL5wHd2gJYAmt-74">
          <mxGeometry width="60" height="30" as="geometry">
            <mxRectangle width="60" height="30" as="alternateBounds" />
          </mxGeometry>
        </mxCell>
        <mxCell id="TnojkeBpL5wHd2gJYAmt-76" value="Password" style="shape=partialRectangle;connectable=0;fillColor=none;top=0;left=0;bottom=0;right=0;align=left;spacingLeft=6;overflow=hidden;" vertex="1" parent="TnojkeBpL5wHd2gJYAmt-74">
          <mxGeometry x="60" width="120" height="30" as="geometry">
            <mxRectangle width="120" height="30" as="alternateBounds" />
          </mxGeometry>
        </mxCell>
        <mxCell id="TnojkeBpL5wHd2gJYAmt-96" value="Reports" style="whiteSpace=wrap;html=1;align=center;" vertex="1" parent="1">
          <mxGeometry x="170" y="740" width="100" height="40" as="geometry" />
        </mxCell>
        <mxCell id="TnojkeBpL5wHd2gJYAmt-97" value="UserID" style="ellipse;whiteSpace=wrap;html=1;align=center;" vertex="1" parent="1">
          <mxGeometry x="170" y="640" width="100" height="40" as="geometry" />
        </mxCell>
        <mxCell id="TnojkeBpL5wHd2gJYAmt-98" value="Reg no." style="ellipse;whiteSpace=wrap;html=1;align=center;fontStyle=4;" vertex="1" parent="1">
          <mxGeometry x="30" y="670" width="100" height="40" as="geometry" />
        </mxCell>
        <mxCell id="TnojkeBpL5wHd2gJYAmt-100" value="Issue/return" style="ellipse;whiteSpace=wrap;html=1;align=center;" vertex="1" parent="1">
          <mxGeometry x="30" y="800" width="100" height="40" as="geometry" />
        </mxCell>
        <mxCell id="TnojkeBpL5wHd2gJYAmt-101" value="Book no." style="ellipse;whiteSpace=wrap;html=1;align=center;" vertex="1" parent="1">
          <mxGeometry x="30" y="730" width="100" height="40" as="geometry" />
        </mxCell>
        <mxCell id="TnojkeBpL5wHd2gJYAmt-102" value="Manages" style="shape=rhombus;perimeter=rhombusPerimeter;whiteSpace=wrap;html=1;align=center;" vertex="1" parent="1">
          <mxGeometry x="160" y="840" width="120" height="60" as="geometry" />
        </mxCell>
        <mxCell id="TnojkeBpL5wHd2gJYAmt-103" value="Staff" style="whiteSpace=wrap;html=1;align=center;" vertex="1" parent="1">
          <mxGeometry x="170" y="960" width="100" height="40" as="geometry" />
        </mxCell>
        <mxCell id="TnojkeBpL5wHd2gJYAmt-104" value="Name" style="ellipse;whiteSpace=wrap;html=1;align=center;" vertex="1" parent="1">
          <mxGeometry x="40" y="900" width="100" height="40" as="geometry" />
        </mxCell>
        <mxCell id="TnojkeBpL5wHd2gJYAmt-105" value="StaffID" style="ellipse;whiteSpace=wrap;html=1;align=center;fontStyle=4;" vertex="1" parent="1">
          <mxGeometry x="30" y="960" width="100" height="40" as="geometry" />
        </mxCell>
        <mxCell id="TnojkeBpL5wHd2gJYAmt-106" value="Keeps track of" style="shape=rhombus;perimeter=rhombusPerimeter;whiteSpace=wrap;html=1;align=center;" vertex="1" parent="1">
          <mxGeometry x="160" y="1060" width="120" height="60" as="geometry" />
        </mxCell>
        <mxCell id="TnojkeBpL5wHd2gJYAmt-107" value="Reader" style="whiteSpace=wrap;html=1;align=center;" vertex="1" parent="1">
          <mxGeometry x="170" y="1180" width="100" height="40" as="geometry" />
        </mxCell>
        <mxCell id="TnojkeBpL5wHd2gJYAmt-108" value="Name" style="ellipse;whiteSpace=wrap;html=1;align=center;" vertex="1" parent="1">
          <mxGeometry x="-20" y="1180" width="100" height="40" as="geometry" />
        </mxCell>
        <mxCell id="TnojkeBpL5wHd2gJYAmt-109" value="Email" style="ellipse;whiteSpace=wrap;html=1;align=center;" vertex="1" parent="1">
          <mxGeometry x="10" y="1130" width="100" height="40" as="geometry" />
        </mxCell>
        <mxCell id="TnojkeBpL5wHd2gJYAmt-110" value="UserID" style="ellipse;whiteSpace=wrap;html=1;align=center;" vertex="1" parent="1">
          <mxGeometry x="90" y="1100" width="100" height="40" as="geometry" />
        </mxCell>
        <mxCell id="TnojkeBpL5wHd2gJYAmt-111" value="Phone no." style="ellipse;shape=doubleEllipse;margin=3;whiteSpace=wrap;html=1;align=center;" vertex="1" parent="1">
          <mxGeometry x="10" y="1240" width="100" height="40" as="geometry" />
        </mxCell>
        <mxCell id="TnojkeBpL5wHd2gJYAmt-112" value="Address" style="ellipse;whiteSpace=wrap;html=1;align=center;" vertex="1" parent="1">
          <mxGeometry x="90" y="1290" width="100" height="40" as="geometry" />
        </mxCell>
        <mxCell id="TnojkeBpL5wHd2gJYAmt-113" value="Reserve/Return&lt;br&gt;Date" style="shape=rhombus;perimeter=rhombusPerimeter;whiteSpace=wrap;html=1;align=center;" vertex="1" parent="1">
          <mxGeometry x="320" y="1170" width="120" height="60" as="geometry" />
        </mxCell>
        <mxCell id="TnojkeBpL5wHd2gJYAmt-114" value="Due Date" style="ellipse;whiteSpace=wrap;html=1;align=center;" vertex="1" parent="1">
          <mxGeometry x="410" y="1270" width="100" height="40" as="geometry" />
        </mxCell>
        <mxCell id="TnojkeBpL5wHd2gJYAmt-115" value="Return Date" style="ellipse;whiteSpace=wrap;html=1;align=center;" vertex="1" parent="1">
          <mxGeometry x="300" y="1280" width="100" height="40" as="geometry" />
        </mxCell>
        <mxCell id="TnojkeBpL5wHd2gJYAmt-118" value="Books" style="whiteSpace=wrap;html=1;align=center;" vertex="1" parent="1">
          <mxGeometry x="560" y="1180" width="100" height="40" as="geometry" />
        </mxCell>
        <mxCell id="TnojkeBpL5wHd2gJYAmt-119" value="Reserve Date" style="ellipse;whiteSpace=wrap;html=1;align=center;fontStyle=4;" vertex="1" parent="1">
          <mxGeometry x="330" y="1100" width="100" height="40" as="geometry" />
        </mxCell>
        <mxCell id="TnojkeBpL5wHd2gJYAmt-120" value="Price" style="ellipse;whiteSpace=wrap;html=1;align=center;" vertex="1" parent="1">
          <mxGeometry x="710" y="1110" width="100" height="40" as="geometry" />
        </mxCell>
        <mxCell id="TnojkeBpL5wHd2gJYAmt-121" value="Category" style="ellipse;whiteSpace=wrap;html=1;align=center;" vertex="1" parent="1">
          <mxGeometry x="750" y="1160" width="100" height="40" as="geometry" />
        </mxCell>
        <mxCell id="TnojkeBpL5wHd2gJYAmt-122" value="Edition" style="ellipse;whiteSpace=wrap;html=1;align=center;" vertex="1" parent="1">
          <mxGeometry x="760" y="1220" width="100" height="40" as="geometry" />
        </mxCell>
        <mxCell id="TnojkeBpL5wHd2gJYAmt-123" value="Title" style="ellipse;whiteSpace=wrap;html=1;align=center;" vertex="1" parent="1">
          <mxGeometry x="700" y="1270" width="100" height="40" as="geometry" />
        </mxCell>
        <mxCell id="TnojkeBpL5wHd2gJYAmt-124" value="Auth no." style="ellipse;whiteSpace=wrap;html=1;align=center;" vertex="1" parent="1">
          <mxGeometry x="530" y="1260" width="100" height="40" as="geometry" />
        </mxCell>
        <mxCell id="TnojkeBpL5wHd2gJYAmt-125" value="ISBN" style="ellipse;whiteSpace=wrap;html=1;align=center;fontStyle=4;" vertex="1" parent="1">
          <mxGeometry x="600" y="1310" width="100" height="40" as="geometry" />
        </mxCell>
        <mxCell id="TnojkeBpL5wHd2gJYAmt-126" value="Publishes" style="shape=rhombus;perimeter=rhombusPerimeter;whiteSpace=wrap;html=1;align=center;" vertex="1" parent="1">
          <mxGeometry x="620" y="1000" width="120" height="60" as="geometry" />
        </mxCell>
        <mxCell id="TnojkeBpL5wHd2gJYAmt-127" value="Maintains" style="shape=rhombus;perimeter=rhombusPerimeter;whiteSpace=wrap;html=1;align=center;" vertex="1" parent="1">
          <mxGeometry x="480" y="1010" width="120" height="60" as="geometry" />
        </mxCell>
        <mxCell id="TnojkeBpL5wHd2gJYAmt-128" value="Publisher" style="whiteSpace=wrap;html=1;align=center;" vertex="1" parent="1">
          <mxGeometry x="600" y="850" width="100" height="40" as="geometry" />
        </mxCell>
        <mxCell id="TnojkeBpL5wHd2gJYAmt-129" value="YearOfPublication" style="ellipse;whiteSpace=wrap;html=1;align=center;" vertex="1" parent="1">
          <mxGeometry x="750" y="900" width="100" height="40" as="geometry" />
        </mxCell>
        <mxCell id="TnojkeBpL5wHd2gJYAmt-130" value="Name" style="ellipse;whiteSpace=wrap;html=1;align=center;" vertex="1" parent="1">
          <mxGeometry x="740" y="760" width="100" height="40" as="geometry" />
        </mxCell>
        <mxCell id="TnojkeBpL5wHd2gJYAmt-131" value="PublisherID" style="ellipse;whiteSpace=wrap;html=1;align=center;fontStyle=4;" vertex="1" parent="1">
          <mxGeometry x="750" y="830" width="100" height="40" as="geometry" />
        </mxCell>
        <mxCell id="TnojkeBpL5wHd2gJYAmt-132" value="Login" style="shape=rhombus;perimeter=rhombusPerimeter;whiteSpace=wrap;html=1;align=center;" vertex="1" parent="1">
          <mxGeometry x="400" y="860" width="120" height="60" as="geometry" />
        </mxCell>
        <mxCell id="TnojkeBpL5wHd2gJYAmt-133" value="Authentication System" style="whiteSpace=wrap;html=1;align=center;" vertex="1" parent="1">
          <mxGeometry x="550" y="750" width="100" height="40" as="geometry" />
        </mxCell>
        <mxCell id="TnojkeBpL5wHd2gJYAmt-134" value="Password" style="ellipse;whiteSpace=wrap;html=1;align=center;" vertex="1" parent="1">
          <mxGeometry x="490" y="650" width="100" height="40" as="geometry" />
        </mxCell>
        <mxCell id="TnojkeBpL5wHd2gJYAmt-135" value="LoginID" style="ellipse;whiteSpace=wrap;html=1;align=center;fontStyle=4;" vertex="1" parent="1">
          <mxGeometry x="650" y="650" width="100" height="40" as="geometry" />
        </mxCell>
        <mxCell id="TnojkeBpL5wHd2gJYAmt-166" value="" style="endArrow=none;html=1;rounded=0;exitX=0.5;exitY=1;exitDx=0;exitDy=0;entryX=0.5;entryY=0;entryDx=0;entryDy=0;" edge="1" parent="1" source="TnojkeBpL5wHd2gJYAmt-96" target="TnojkeBpL5wHd2gJYAmt-102">
          <mxGeometry relative="1" as="geometry">
            <mxPoint x="700" y="960" as="sourcePoint" />
            <mxPoint x="810" y="990" as="targetPoint" />
          </mxGeometry>
        </mxCell>
        <mxCell id="TnojkeBpL5wHd2gJYAmt-167" value="N" style="resizable=0;html=1;align=right;verticalAlign=bottom;" connectable="0" vertex="1" parent="TnojkeBpL5wHd2gJYAmt-166">
          <mxGeometry x="1" relative="1" as="geometry">
            <mxPoint x="-10" y="-20" as="offset" />
          </mxGeometry>
        </mxCell>
        <mxCell id="TnojkeBpL5wHd2gJYAmt-168" value="" style="endArrow=none;html=1;rounded=0;exitX=0.5;exitY=1;exitDx=0;exitDy=0;entryX=0.5;entryY=0;entryDx=0;entryDy=0;" edge="1" parent="1" source="TnojkeBpL5wHd2gJYAmt-102" target="TnojkeBpL5wHd2gJYAmt-103">
          <mxGeometry relative="1" as="geometry">
            <mxPoint x="650" y="990" as="sourcePoint" />
            <mxPoint x="810" y="990" as="targetPoint" />
          </mxGeometry>
        </mxCell>
        <mxCell id="TnojkeBpL5wHd2gJYAmt-169" value="1" style="resizable=0;html=1;align=right;verticalAlign=bottom;" connectable="0" vertex="1" parent="TnojkeBpL5wHd2gJYAmt-168">
          <mxGeometry x="1" relative="1" as="geometry">
            <mxPoint x="-10" y="-20" as="offset" />
          </mxGeometry>
        </mxCell>
        <mxCell id="TnojkeBpL5wHd2gJYAmt-170" value="" style="endArrow=none;html=1;rounded=0;exitX=1;exitY=0.5;exitDx=0;exitDy=0;entryX=0.25;entryY=0;entryDx=0;entryDy=0;" edge="1" parent="1" source="TnojkeBpL5wHd2gJYAmt-104" target="TnojkeBpL5wHd2gJYAmt-103">
          <mxGeometry relative="1" as="geometry">
            <mxPoint x="650" y="990" as="sourcePoint" />
            <mxPoint x="810" y="990" as="targetPoint" />
          </mxGeometry>
        </mxCell>
        <mxCell id="TnojkeBpL5wHd2gJYAmt-171" value="" style="endArrow=none;html=1;rounded=0;exitX=0.5;exitY=1;exitDx=0;exitDy=0;entryX=0.5;entryY=0;entryDx=0;entryDy=0;" edge="1" parent="1" source="TnojkeBpL5wHd2gJYAmt-97" target="TnojkeBpL5wHd2gJYAmt-96">
          <mxGeometry relative="1" as="geometry">
            <mxPoint x="650" y="990" as="sourcePoint" />
            <mxPoint x="810" y="990" as="targetPoint" />
          </mxGeometry>
        </mxCell>
        <mxCell id="TnojkeBpL5wHd2gJYAmt-172" value="" style="endArrow=none;html=1;rounded=0;exitX=1;exitY=0.5;exitDx=0;exitDy=0;entryX=0;entryY=0.5;entryDx=0;entryDy=0;" edge="1" parent="1" source="TnojkeBpL5wHd2gJYAmt-98" target="TnojkeBpL5wHd2gJYAmt-96">
          <mxGeometry relative="1" as="geometry">
            <mxPoint x="650" y="990" as="sourcePoint" />
            <mxPoint x="810" y="990" as="targetPoint" />
          </mxGeometry>
        </mxCell>
        <mxCell id="TnojkeBpL5wHd2gJYAmt-173" value="" style="endArrow=none;html=1;rounded=0;exitX=1;exitY=0.5;exitDx=0;exitDy=0;entryX=0;entryY=0.5;entryDx=0;entryDy=0;" edge="1" parent="1" source="TnojkeBpL5wHd2gJYAmt-101" target="TnojkeBpL5wHd2gJYAmt-96">
          <mxGeometry relative="1" as="geometry">
            <mxPoint x="650" y="990" as="sourcePoint" />
            <mxPoint x="810" y="990" as="targetPoint" />
          </mxGeometry>
        </mxCell>
        <mxCell id="TnojkeBpL5wHd2gJYAmt-174" value="" style="endArrow=none;html=1;rounded=0;exitX=1;exitY=0.5;exitDx=0;exitDy=0;entryX=0;entryY=0.5;entryDx=0;entryDy=0;" edge="1" parent="1" source="TnojkeBpL5wHd2gJYAmt-100" target="TnojkeBpL5wHd2gJYAmt-96">
          <mxGeometry relative="1" as="geometry">
            <mxPoint x="650" y="990" as="sourcePoint" />
            <mxPoint x="810" y="990" as="targetPoint" />
          </mxGeometry>
        </mxCell>
        <mxCell id="TnojkeBpL5wHd2gJYAmt-175" value="" style="endArrow=none;html=1;rounded=0;exitX=1;exitY=0.5;exitDx=0;exitDy=0;entryX=0;entryY=0.5;entryDx=0;entryDy=0;" edge="1" parent="1" source="TnojkeBpL5wHd2gJYAmt-105" target="TnojkeBpL5wHd2gJYAmt-103">
          <mxGeometry relative="1" as="geometry">
            <mxPoint x="650" y="990" as="sourcePoint" />
            <mxPoint x="810" y="990" as="targetPoint" />
          </mxGeometry>
        </mxCell>
        <mxCell id="TnojkeBpL5wHd2gJYAmt-176" value="" style="endArrow=none;html=1;rounded=0;exitX=0.5;exitY=1;exitDx=0;exitDy=0;entryX=0.5;entryY=0;entryDx=0;entryDy=0;" edge="1" parent="1" source="TnojkeBpL5wHd2gJYAmt-103" target="TnojkeBpL5wHd2gJYAmt-106">
          <mxGeometry relative="1" as="geometry">
            <mxPoint x="650" y="990" as="sourcePoint" />
            <mxPoint x="810" y="990" as="targetPoint" />
          </mxGeometry>
        </mxCell>
        <mxCell id="TnojkeBpL5wHd2gJYAmt-177" value="M" style="resizable=0;html=1;align=left;verticalAlign=bottom;" connectable="0" vertex="1" parent="TnojkeBpL5wHd2gJYAmt-176">
          <mxGeometry x="-1" relative="1" as="geometry">
            <mxPoint x="5" y="30" as="offset" />
          </mxGeometry>
        </mxCell>
        <mxCell id="TnojkeBpL5wHd2gJYAmt-179" value="" style="endArrow=none;html=1;rounded=0;exitX=0.5;exitY=1;exitDx=0;exitDy=0;entryX=0.5;entryY=0;entryDx=0;entryDy=0;" edge="1" parent="1" source="TnojkeBpL5wHd2gJYAmt-106" target="TnojkeBpL5wHd2gJYAmt-107">
          <mxGeometry relative="1" as="geometry">
            <mxPoint x="650" y="990" as="sourcePoint" />
            <mxPoint x="810" y="990" as="targetPoint" />
          </mxGeometry>
        </mxCell>
        <mxCell id="TnojkeBpL5wHd2gJYAmt-181" value="N" style="resizable=0;html=1;align=right;verticalAlign=bottom;" connectable="0" vertex="1" parent="TnojkeBpL5wHd2gJYAmt-179">
          <mxGeometry x="1" relative="1" as="geometry">
            <mxPoint x="20" y="-20" as="offset" />
          </mxGeometry>
        </mxCell>
        <mxCell id="TnojkeBpL5wHd2gJYAmt-182" value="" style="endArrow=none;html=1;rounded=0;exitX=0.5;exitY=1;exitDx=0;exitDy=0;entryX=0.25;entryY=0;entryDx=0;entryDy=0;" edge="1" parent="1" source="TnojkeBpL5wHd2gJYAmt-110" target="TnojkeBpL5wHd2gJYAmt-107">
          <mxGeometry relative="1" as="geometry">
            <mxPoint x="650" y="990" as="sourcePoint" />
            <mxPoint x="810" y="990" as="targetPoint" />
          </mxGeometry>
        </mxCell>
        <mxCell id="TnojkeBpL5wHd2gJYAmt-183" value="" style="endArrow=none;html=1;rounded=0;exitX=0.986;exitY=0.775;exitDx=0;exitDy=0;exitPerimeter=0;entryX=0;entryY=0.25;entryDx=0;entryDy=0;" edge="1" parent="1" source="TnojkeBpL5wHd2gJYAmt-109" target="TnojkeBpL5wHd2gJYAmt-107">
          <mxGeometry relative="1" as="geometry">
            <mxPoint x="650" y="990" as="sourcePoint" />
            <mxPoint x="810" y="990" as="targetPoint" />
          </mxGeometry>
        </mxCell>
        <mxCell id="TnojkeBpL5wHd2gJYAmt-184" value="" style="endArrow=none;html=1;rounded=0;exitX=1;exitY=0.5;exitDx=0;exitDy=0;entryX=0;entryY=0.5;entryDx=0;entryDy=0;" edge="1" parent="1" source="TnojkeBpL5wHd2gJYAmt-108" target="TnojkeBpL5wHd2gJYAmt-107">
          <mxGeometry relative="1" as="geometry">
            <mxPoint x="650" y="990" as="sourcePoint" />
            <mxPoint x="810" y="990" as="targetPoint" />
          </mxGeometry>
        </mxCell>
        <mxCell id="TnojkeBpL5wHd2gJYAmt-185" value="" style="endArrow=none;html=1;rounded=0;exitX=1;exitY=0.5;exitDx=0;exitDy=0;entryX=0;entryY=0.75;entryDx=0;entryDy=0;" edge="1" parent="1" source="TnojkeBpL5wHd2gJYAmt-111" target="TnojkeBpL5wHd2gJYAmt-107">
          <mxGeometry relative="1" as="geometry">
            <mxPoint x="650" y="990" as="sourcePoint" />
            <mxPoint x="810" y="990" as="targetPoint" />
          </mxGeometry>
        </mxCell>
        <mxCell id="TnojkeBpL5wHd2gJYAmt-186" value="" style="endArrow=none;html=1;rounded=0;exitX=0.5;exitY=0;exitDx=0;exitDy=0;entryX=0.25;entryY=1;entryDx=0;entryDy=0;" edge="1" parent="1" source="TnojkeBpL5wHd2gJYAmt-112" target="TnojkeBpL5wHd2gJYAmt-107">
          <mxGeometry relative="1" as="geometry">
            <mxPoint x="310" y="1130" as="sourcePoint" />
            <mxPoint x="470" y="1130" as="targetPoint" />
          </mxGeometry>
        </mxCell>
        <mxCell id="TnojkeBpL5wHd2gJYAmt-187" value="" style="endArrow=none;html=1;rounded=0;exitX=1;exitY=0.5;exitDx=0;exitDy=0;entryX=0;entryY=0.5;entryDx=0;entryDy=0;" edge="1" parent="1" source="TnojkeBpL5wHd2gJYAmt-107" target="TnojkeBpL5wHd2gJYAmt-113">
          <mxGeometry relative="1" as="geometry">
            <mxPoint x="310" y="1130" as="sourcePoint" />
            <mxPoint x="470" y="1130" as="targetPoint" />
          </mxGeometry>
        </mxCell>
        <mxCell id="TnojkeBpL5wHd2gJYAmt-188" value="1" style="resizable=0;html=1;align=right;verticalAlign=bottom;" connectable="0" vertex="1" parent="TnojkeBpL5wHd2gJYAmt-187">
          <mxGeometry x="1" relative="1" as="geometry">
            <mxPoint x="-20" as="offset" />
          </mxGeometry>
        </mxCell>
        <mxCell id="TnojkeBpL5wHd2gJYAmt-189" value="" style="endArrow=none;html=1;rounded=0;exitX=0.5;exitY=0;exitDx=0;exitDy=0;entryX=0.5;entryY=1;entryDx=0;entryDy=0;" edge="1" parent="1" source="TnojkeBpL5wHd2gJYAmt-113" target="TnojkeBpL5wHd2gJYAmt-119">
          <mxGeometry relative="1" as="geometry">
            <mxPoint x="310" y="1130" as="sourcePoint" />
            <mxPoint x="470" y="1130" as="targetPoint" />
          </mxGeometry>
        </mxCell>
        <mxCell id="TnojkeBpL5wHd2gJYAmt-190" value="" style="endArrow=none;html=1;rounded=0;exitX=0.5;exitY=0;exitDx=0;exitDy=0;entryX=0.5;entryY=1;entryDx=0;entryDy=0;" edge="1" parent="1" source="TnojkeBpL5wHd2gJYAmt-115" target="TnojkeBpL5wHd2gJYAmt-113">
          <mxGeometry relative="1" as="geometry">
            <mxPoint x="310" y="1130" as="sourcePoint" />
            <mxPoint x="470" y="1130" as="targetPoint" />
          </mxGeometry>
        </mxCell>
        <mxCell id="TnojkeBpL5wHd2gJYAmt-191" value="" style="endArrow=none;html=1;rounded=0;entryX=0.5;entryY=0;entryDx=0;entryDy=0;exitX=1;exitY=1;exitDx=0;exitDy=0;" edge="1" parent="1" source="TnojkeBpL5wHd2gJYAmt-113" target="TnojkeBpL5wHd2gJYAmt-114">
          <mxGeometry relative="1" as="geometry">
            <mxPoint x="310" y="1130" as="sourcePoint" />
            <mxPoint x="470" y="1130" as="targetPoint" />
          </mxGeometry>
        </mxCell>
        <mxCell id="TnojkeBpL5wHd2gJYAmt-192" value="" style="endArrow=none;html=1;rounded=0;exitX=1;exitY=0.5;exitDx=0;exitDy=0;entryX=0;entryY=0.5;entryDx=0;entryDy=0;" edge="1" parent="1" source="TnojkeBpL5wHd2gJYAmt-113" target="TnojkeBpL5wHd2gJYAmt-118">
          <mxGeometry relative="1" as="geometry">
            <mxPoint x="310" y="1130" as="sourcePoint" />
            <mxPoint x="470" y="1130" as="targetPoint" />
          </mxGeometry>
        </mxCell>
        <mxCell id="TnojkeBpL5wHd2gJYAmt-193" value="N" style="resizable=0;html=1;align=right;verticalAlign=bottom;" connectable="0" vertex="1" parent="TnojkeBpL5wHd2gJYAmt-192">
          <mxGeometry x="1" relative="1" as="geometry">
            <mxPoint x="-100" as="offset" />
          </mxGeometry>
        </mxCell>
        <mxCell id="TnojkeBpL5wHd2gJYAmt-194" value="" style="endArrow=none;html=1;rounded=0;exitX=0.5;exitY=0;exitDx=0;exitDy=0;entryX=0.25;entryY=1;entryDx=0;entryDy=0;" edge="1" parent="1" source="TnojkeBpL5wHd2gJYAmt-124" target="TnojkeBpL5wHd2gJYAmt-118">
          <mxGeometry relative="1" as="geometry">
            <mxPoint x="560" y="1210" as="sourcePoint" />
            <mxPoint x="720" y="1210" as="targetPoint" />
          </mxGeometry>
        </mxCell>
        <mxCell id="TnojkeBpL5wHd2gJYAmt-195" value="" style="endArrow=none;html=1;rounded=0;exitX=0.5;exitY=0;exitDx=0;exitDy=0;entryX=0.5;entryY=1;entryDx=0;entryDy=0;" edge="1" parent="1" source="TnojkeBpL5wHd2gJYAmt-125" target="TnojkeBpL5wHd2gJYAmt-118">
          <mxGeometry relative="1" as="geometry">
            <mxPoint x="560" y="1210" as="sourcePoint" />
            <mxPoint x="720" y="1210" as="targetPoint" />
          </mxGeometry>
        </mxCell>
        <mxCell id="TnojkeBpL5wHd2gJYAmt-196" value="" style="endArrow=none;html=1;rounded=0;exitX=0.5;exitY=0;exitDx=0;exitDy=0;entryX=0.75;entryY=1;entryDx=0;entryDy=0;" edge="1" parent="1" source="TnojkeBpL5wHd2gJYAmt-123" target="TnojkeBpL5wHd2gJYAmt-118">
          <mxGeometry relative="1" as="geometry">
            <mxPoint x="560" y="1210" as="sourcePoint" />
            <mxPoint x="720" y="1210" as="targetPoint" />
          </mxGeometry>
        </mxCell>
        <mxCell id="TnojkeBpL5wHd2gJYAmt-197" value="" style="endArrow=none;html=1;rounded=0;exitX=0;exitY=0;exitDx=0;exitDy=0;entryX=1;entryY=0.75;entryDx=0;entryDy=0;" edge="1" parent="1" source="TnojkeBpL5wHd2gJYAmt-122" target="TnojkeBpL5wHd2gJYAmt-118">
          <mxGeometry relative="1" as="geometry">
            <mxPoint x="560" y="1210" as="sourcePoint" />
            <mxPoint x="720" y="1210" as="targetPoint" />
          </mxGeometry>
        </mxCell>
        <mxCell id="TnojkeBpL5wHd2gJYAmt-198" value="" style="endArrow=none;html=1;rounded=0;entryX=0;entryY=0.5;entryDx=0;entryDy=0;exitX=1;exitY=0.5;exitDx=0;exitDy=0;" edge="1" parent="1" source="TnojkeBpL5wHd2gJYAmt-118" target="TnojkeBpL5wHd2gJYAmt-121">
          <mxGeometry relative="1" as="geometry">
            <mxPoint x="560" y="1210" as="sourcePoint" />
            <mxPoint x="720" y="1210" as="targetPoint" />
          </mxGeometry>
        </mxCell>
        <mxCell id="TnojkeBpL5wHd2gJYAmt-199" value="" style="endArrow=none;html=1;rounded=0;entryX=0;entryY=0.5;entryDx=0;entryDy=0;exitX=0.75;exitY=0;exitDx=0;exitDy=0;" edge="1" parent="1" source="TnojkeBpL5wHd2gJYAmt-118" target="TnojkeBpL5wHd2gJYAmt-120">
          <mxGeometry relative="1" as="geometry">
            <mxPoint x="560" y="1210" as="sourcePoint" />
            <mxPoint x="720" y="1210" as="targetPoint" />
          </mxGeometry>
        </mxCell>
        <mxCell id="TnojkeBpL5wHd2gJYAmt-200" value="" style="endArrow=none;html=1;rounded=0;exitX=0.5;exitY=0;exitDx=0;exitDy=0;entryX=0.5;entryY=1;entryDx=0;entryDy=0;" edge="1" parent="1" source="TnojkeBpL5wHd2gJYAmt-118" target="TnojkeBpL5wHd2gJYAmt-126">
          <mxGeometry relative="1" as="geometry">
            <mxPoint x="560" y="1210" as="sourcePoint" />
            <mxPoint x="720" y="1210" as="targetPoint" />
          </mxGeometry>
        </mxCell>
        <mxCell id="TnojkeBpL5wHd2gJYAmt-201" value="" style="endArrow=none;html=1;rounded=0;entryX=0.5;entryY=0;entryDx=0;entryDy=0;exitX=0.5;exitY=1;exitDx=0;exitDy=0;" edge="1" parent="1" source="TnojkeBpL5wHd2gJYAmt-128" target="TnojkeBpL5wHd2gJYAmt-126">
          <mxGeometry relative="1" as="geometry">
            <mxPoint x="560" y="1040" as="sourcePoint" />
            <mxPoint x="720" y="1040" as="targetPoint" />
          </mxGeometry>
        </mxCell>
        <mxCell id="TnojkeBpL5wHd2gJYAmt-202" value="" style="endArrow=none;html=1;rounded=0;entryX=0.5;entryY=0;entryDx=0;entryDy=0;exitX=0.75;exitY=1;exitDx=0;exitDy=0;" edge="1" parent="1" source="TnojkeBpL5wHd2gJYAmt-128" target="TnojkeBpL5wHd2gJYAmt-129">
          <mxGeometry relative="1" as="geometry">
            <mxPoint x="560" y="1040" as="sourcePoint" />
            <mxPoint x="720" y="1040" as="targetPoint" />
          </mxGeometry>
        </mxCell>
        <mxCell id="TnojkeBpL5wHd2gJYAmt-203" value="" style="endArrow=none;html=1;rounded=0;entryX=0;entryY=0.5;entryDx=0;entryDy=0;exitX=1;exitY=0.5;exitDx=0;exitDy=0;" edge="1" parent="1" source="TnojkeBpL5wHd2gJYAmt-128" target="TnojkeBpL5wHd2gJYAmt-131">
          <mxGeometry relative="1" as="geometry">
            <mxPoint x="560" y="790" as="sourcePoint" />
            <mxPoint x="720" y="790" as="targetPoint" />
          </mxGeometry>
        </mxCell>
        <mxCell id="TnojkeBpL5wHd2gJYAmt-204" value="" style="endArrow=none;html=1;rounded=0;entryX=0;entryY=0.5;entryDx=0;entryDy=0;exitX=0.75;exitY=0;exitDx=0;exitDy=0;" edge="1" parent="1" source="TnojkeBpL5wHd2gJYAmt-128" target="TnojkeBpL5wHd2gJYAmt-130">
          <mxGeometry relative="1" as="geometry">
            <mxPoint x="560" y="790" as="sourcePoint" />
            <mxPoint x="720" y="790" as="targetPoint" />
          </mxGeometry>
        </mxCell>
        <mxCell id="TnojkeBpL5wHd2gJYAmt-205" value="" style="endArrow=none;html=1;rounded=0;exitX=1;exitY=0.5;exitDx=0;exitDy=0;entryX=0.146;entryY=0.661;entryDx=0;entryDy=0;entryPerimeter=0;" edge="1" parent="1" source="TnojkeBpL5wHd2gJYAmt-103" target="TnojkeBpL5wHd2gJYAmt-132">
          <mxGeometry relative="1" as="geometry">
            <mxPoint x="300" y="880" as="sourcePoint" />
            <mxPoint x="460" y="880" as="targetPoint" />
          </mxGeometry>
        </mxCell>
        <mxCell id="TnojkeBpL5wHd2gJYAmt-206" value="N" style="resizable=0;html=1;align=right;verticalAlign=bottom;" connectable="0" vertex="1" parent="TnojkeBpL5wHd2gJYAmt-205">
          <mxGeometry x="1" relative="1" as="geometry">
            <mxPoint x="-38" y="11" as="offset" />
          </mxGeometry>
        </mxCell>
        <mxCell id="TnojkeBpL5wHd2gJYAmt-207" value="" style="endArrow=none;html=1;rounded=0;exitX=1;exitY=0;exitDx=0;exitDy=0;entryX=0;entryY=0.5;entryDx=0;entryDy=0;" edge="1" parent="1" source="TnojkeBpL5wHd2gJYAmt-132" target="TnojkeBpL5wHd2gJYAmt-133">
          <mxGeometry relative="1" as="geometry">
            <mxPoint x="300" y="880" as="sourcePoint" />
            <mxPoint x="460" y="880" as="targetPoint" />
          </mxGeometry>
        </mxCell>
        <mxCell id="TnojkeBpL5wHd2gJYAmt-208" value="1" style="resizable=0;html=1;align=right;verticalAlign=bottom;" connectable="0" vertex="1" parent="TnojkeBpL5wHd2gJYAmt-207">
          <mxGeometry x="1" relative="1" as="geometry">
            <mxPoint x="-10" y="10" as="offset" />
          </mxGeometry>
        </mxCell>
        <mxCell id="TnojkeBpL5wHd2gJYAmt-209" value="" style="endArrow=none;html=1;rounded=0;exitX=0.5;exitY=0;exitDx=0;exitDy=0;entryX=0.5;entryY=1;entryDx=0;entryDy=0;" edge="1" parent="1" source="TnojkeBpL5wHd2gJYAmt-133" target="TnojkeBpL5wHd2gJYAmt-134">
          <mxGeometry relative="1" as="geometry">
            <mxPoint x="300" y="880" as="sourcePoint" />
            <mxPoint x="460" y="880" as="targetPoint" />
          </mxGeometry>
        </mxCell>
        <mxCell id="TnojkeBpL5wHd2gJYAmt-210" value="" style="endArrow=none;html=1;rounded=0;entryX=0.5;entryY=0;entryDx=0;entryDy=0;exitX=0.5;exitY=1;exitDx=0;exitDy=0;" edge="1" parent="1" source="TnojkeBpL5wHd2gJYAmt-135" target="TnojkeBpL5wHd2gJYAmt-133">
          <mxGeometry relative="1" as="geometry">
            <mxPoint x="300" y="790" as="sourcePoint" />
            <mxPoint x="460" y="790" as="targetPoint" />
          </mxGeometry>
        </mxCell>
        <mxCell id="TnojkeBpL5wHd2gJYAmt-211" value="" style="endArrow=none;html=1;rounded=0;exitX=1;exitY=1;exitDx=0;exitDy=0;entryX=0;entryY=0;entryDx=0;entryDy=0;" edge="1" parent="1" source="TnojkeBpL5wHd2gJYAmt-103" target="TnojkeBpL5wHd2gJYAmt-127">
          <mxGeometry relative="1" as="geometry">
            <mxPoint x="300" y="790" as="sourcePoint" />
            <mxPoint x="460" y="790" as="targetPoint" />
          </mxGeometry>
        </mxCell>
        <mxCell id="TnojkeBpL5wHd2gJYAmt-212" value="1" style="resizable=0;html=1;align=right;verticalAlign=bottom;" connectable="0" vertex="1" parent="TnojkeBpL5wHd2gJYAmt-211">
          <mxGeometry x="1" relative="1" as="geometry">
            <mxPoint x="-35" y="-15" as="offset" />
          </mxGeometry>
        </mxCell>
        <mxCell id="TnojkeBpL5wHd2gJYAmt-213" value="" style="endArrow=none;html=1;rounded=0;exitX=1;exitY=1;exitDx=0;exitDy=0;entryX=0.25;entryY=0;entryDx=0;entryDy=0;" edge="1" parent="1" source="TnojkeBpL5wHd2gJYAmt-127" target="TnojkeBpL5wHd2gJYAmt-118">
          <mxGeometry relative="1" as="geometry">
            <mxPoint x="300" y="1130" as="sourcePoint" />
            <mxPoint x="460" y="1130" as="targetPoint" />
          </mxGeometry>
        </mxCell>
        <mxCell id="TnojkeBpL5wHd2gJYAmt-214" value="N" style="resizable=0;html=1;align=right;verticalAlign=bottom;" connectable="0" vertex="1" parent="TnojkeBpL5wHd2gJYAmt-213">
          <mxGeometry x="1" relative="1" as="geometry">
            <mxPoint x="-65" y="-50" as="offset" />
          </mxGeometry>
        </mxCell>
      </root>
    </mxGraphModel>
  </diagram>
</mxfile>
